<svg xmlns="http://www.w3.org/2000/svg" viewBox="0 0 512 512">
  <defs>
    <linearGradient id="bg" x1="0%" y1="0%" x2="100%" y2="100%">
      <stop offset="0%" style="stop-color:#3B82F6"/>
      <stop offset="100%" style="stop-color:#1D4ED8"/>
    </linearGradient>
    <linearGradient id="book" x1="0%" y1="0%" x2="100%" y2="100%">
      <stop offset="0%" style="stop-color:#FFFFFF"/>
      <stop offset="100%" style="stop-color:#E5E7EB"/>
    </linearGradient>
  </defs>
  <!-- Background circle -->
  <circle cx="256" cy="256" r="240" fill="url(#bg)"/>
  <!-- Book/vault base -->
  <rect x="120" y="140" width="272" height="240" rx="16" fill="url(#book)"/>
  <!-- Book spine -->
  <rect x="120" y="140" width="40" height="240" rx="8" fill="#D1D5DB"/>
  <!-- Book pages lines -->
  <rect x="180" y="180" width="180" height="12" rx="4" fill="#9CA3AF"/>
  <rect x="180" y="210" width="160" height="12" rx="4" fill="#9CA3AF"/>
  <rect x="180" y="240" width="180" height="12" rx="4" fill="#9CA3AF"/>
  <rect x="180" y="270" width="140" height="12" rx="4" fill="#9CA3AF"/>
  <!-- Magnifying glass -->
  <circle cx="330" cy="320" r="50" fill="none" stroke="#1E40AF" stroke-width="16"/>
  <line x1="365" y1="355" x2="400" y2="390" stroke="#1E40AF" stroke-width="16" stroke-linecap="round"/>
  <!-- AI sparkle -->
  <path d="M380 140 L390 160 L410 150 L400 170 L420 180 L400 190 L410 210 L390 200 L380 220 L370 200 L350 210 L360 190 L340 180 L360 170 L350 150 L370 160 Z" fill="#FBBF24"/>
</svg>
